<svg xmlns="http://www.w3.org/2000/svg" xmlns:xlink="http://www.w3.org/1999/xlink" width="20px" height="20px" viewBox="0 0 20 20" version="1.1">
    <!-- Generator: sketchtool 52.5 (67469) - http://www.bohemiancoding.com/sketch -->
    <title>0382D229-00DB-45C3-98CB-FBB7384A3D51</title>
    <desc>Created with sketchtool.</desc>
    <g id="Symbols" stroke="none" stroke-width="1" fill="none" fill-rule="evenodd">
        <g id="clock_ico" fill="#5F5C9E" fill-rule="nonzero">
            <path d="M10,0 C15.5,0 20,4.5 20,10 C20,15.5 15.5,20 10,20 C4.5,20 0,15.5 0,10 C0,4.5 4.5,0 10,0 Z M10,18 C14.4,18 18,14.4 18,10 C18,5.6 14.4,2 10,2 C5.6,2 2,5.6 2,10 C2,14.4 5.6,18 10,18 Z M10.5,5 L10.5,10.2 L15,12.9 L14.2,14.2 L9,11 L9,5 L10.5,5 Z"/>
        </g>
    </g>
</svg>